# Blender 4.2.1 LTS
# www.blender.org
mtllib cornell_box.mtl
o back_wall
v -5.019847 0.030081 -11.214182
v 5.972153 0.030081 -11.214182
v 5.972153 11.006080 -11.222922
v -5.147847 11.006080 -11.222922
vn -0.0000 0.0008 1.0000
s 0
usemtl Khaki
f 1//1 3//1 4//1
f 1//1 2//1 3//1
o ceiling
v -5.147847 11.014985 -0.038926
v -5.147847 11.006080 -11.222924
v 5.972153 11.006080 -11.222924
v 5.972153 11.014985 -0.038926
vn -0.0000 -1.0000 0.0008
s 0
usemtl Khaki
f 6//2 8//2 5//2
f 6//2 7//2 8//2
o floor
v -5.083847 0.038989 -0.030184
v 5.972153 0.038989 -0.030184
v 5.972153 0.030081 -11.214182
v -5.019847 0.030081 -11.214182
vn -0.0000 1.0000 -0.0008
s 0
usemtl Khaki
f 10//3 12//3 9//3
f 10//3 11//3 12//3
o left_wall
v -5.083847 0.038989 -0.030184
v -5.019847 0.030081 -11.214182
v -5.147847 11.006080 -11.222924
v -5.147847 11.014985 -0.038926
vn 1.0000 0.0058 -0.0000
vn 0.9999 0.0117 0.0057
s 0
usemtl BloodyRed
f 13//4 15//4 16//4
f 13//5 14//5 15//5
o right_wall
v 5.972153 0.030081 -11.214182
v 5.972153 0.038989 -0.030184
v 5.972153 11.014985 -0.038926
v 5.972153 11.006080 -11.222924
vn -1.0000 -0.0000 -0.0000
s 0
usemtl DarkGreen
f 18//6 20//6 17//6
f 18//6 19//6 20//6
o short_box
v 3.372153 3.337953 -1.332812
v 4.332153 3.335404 -4.532810
v 1.172153 3.334657 -5.472810
v 0.172153 3.337173 -2.312810
v 0.172153 0.037173 -2.310184
v 0.172153 3.337173 -2.312810
v 1.172153 3.334657 -5.472810
v 1.172153 0.034657 -5.470182
v 3.372153 0.037955 -1.330184
v 3.372153 3.337953 -1.332812
v 0.172153 3.337173 -2.312810
v 0.172153 0.037173 -2.310184
v 4.332153 0.035407 -4.530182
v 4.332153 3.335404 -4.532810
v 3.372153 3.337953 -1.332812
v 3.372153 0.037955 -1.330184
v 1.172153 0.034657 -5.470182
v 1.172153 3.334657 -5.472810
v 4.332153 3.335404 -4.532810
v 4.332153 0.035407 -4.530182
vn -0.0000 1.0000 -0.0008
vn -0.9534 -0.0002 -0.3017
vn -0.2928 0.0008 0.9562
vn 0.9578 0.0002 0.2873
vn 0.2851 -0.0008 -0.9585
s 0
usemtl Khaki
f 21//7 23//7 24//7
f 26//8 28//8 25//8
f 30//9 32//9 29//9
f 34//10 36//10 33//10
f 38//11 40//11 37//11
f 21//7 22//7 23//7
f 26//8 27//8 28//8
f 30//9 31//9 32//9
f 34//10 35//10 36//10
f 38//11 39//11 40//11
o tall_box
v -2.487847 6.635053 -4.975440
v 0.672153 6.634273 -5.955440
v -0.307847 6.631723 -9.155437
v -3.467847 6.632521 -8.155437
v -2.487847 0.035055 -4.970182
v -2.487847 6.635053 -4.975440
v -3.467847 6.632521 -8.155437
v -3.467847 0.032522 -8.150182
v -3.467847 0.032522 -8.150182
v -3.467847 6.632521 -8.155437
v -0.307847 6.631723 -9.155437
v -0.307847 0.031725 -9.150182
v -0.307847 0.031725 -9.150182
v -0.307847 6.631723 -9.155437
v 0.672153 6.634273 -5.955440
v 0.672153 0.034275 -5.950182
v 0.672153 0.034275 -5.950182
v 0.672153 6.634273 -5.955440
v -2.487847 6.635053 -4.975440
v -2.487847 0.035055 -4.970182
vn -0.0000 1.0000 -0.0008
vn -0.9556 0.0002 0.2945
vn -0.3017 -0.0008 -0.9534
vn 0.9562 -0.0002 -0.2928
vn 0.2962 0.0008 0.9551
s 0
usemtl Khaki
f 42//12 44//12 41//12
f 45//13 47//13 48//13
f 50//14 52//14 49//14
f 54//15 56//15 53//15
f 58//16 60//16 57//16
f 42//12 43//12 44//12
f 45//13 46//13 47//13
f 50//14 51//14 52//14
f 54//15 55//15 56//15
f 58//16 59//16 60//16
